<?xml version="1.0" standalone="no"?>
<!DOCTYPE svg PUBLIC "-//W3C//DTD SVG 20010904//EN"
 "http://www.w3.org/TR/2001/REC-SVG-20010904/DTD/svg10.dtd">
<svg version="1.0" xmlns="http://www.w3.org/2000/svg"
 width="1080.000000pt" height="1773.000000pt" viewBox="0 0 1080.000000 1773.000000"
 preserveAspectRatio="xMidYMid meet">

<g transform="translate(0.000000,1773.000000) scale(0.100000,-0.100000)"
fill="#000000" stroke="none">
<path d="M5315 12760 c-55 -7 -146 -28 -220 -50 -16 -5 -61 -19 -100 -31 -38
-12 -84 -28 -102 -35 -17 -8 -35 -14 -41 -14 -5 0 -45 -14 -88 -31 -141 -57
-215 -138 -252 -275 -12 -45 -22 -97 -22 -117 0 -48 -14 -54 -59 -24 -45 30
-101 47 -157 47 -107 0 -557 -150 -683 -228 -36 -21 -53 -43 -83 -102 -21 -41
-41 -96 -44 -122 -4 -26 -15 -54 -25 -64 -17 -15 -20 -15 -51 1 -23 12 -66 19
-140 22 -95 5 -115 3 -186 -20 -43 -14 -106 -40 -138 -57 -113 -61 -245 -174
-298 -254 -23 -35 -46 -143 -46 -213 0 -43 -5 -58 -29 -85 -15 -18 -36 -46
-45 -63 -9 -16 -26 -45 -37 -64 -38 -63 -95 -240 -138 -426 -12 -51 -27 -155
-38 -258 -5 -48 -11 -61 -33 -77 -16 -11 -32 -20 -36 -20 -5 0 -33 -10 -64
-21 -30 -12 -71 -27 -90 -34 -37 -14 -202 -80 -235 -95 -11 -5 -45 -19 -75
-30 -121 -48 -137 -54 -198 -82 -35 -15 -66 -28 -69 -28 -3 0 -19 -6 -36 -14
-18 -8 -61 -27 -97 -41 -36 -15 -87 -37 -115 -50 -27 -13 -78 -35 -112 -51
-44 -20 -66 -36 -73 -55 -6 -14 -23 -32 -38 -39 -47 -21 -86 -37 -116 -46 -16
-5 -30 -13 -30 -19 0 -19 37 -17 80 5 46 22 114 25 121 4 8 -25 -28 -42 -104
-50 -63 -5 -83 -4 -106 10 -37 21 -52 20 -107 -7 -31 -15 -45 -29 -45 -42 0
-28 43 -30 207 -11 130 15 133 15 175 -6 43 -21 45 -21 325 -10 307 13 662 36
772 50 96 12 100 7 114 -144 12 -116 20 -181 43 -334 6 -41 17 -118 24 -170
63 -441 158 -915 255 -1275 11 -44 27 -105 35 -135 41 -162 139 -414 217 -560
114 -213 247 -369 447 -526 l74 -57 -7 -1031 c-3 -567 -11 -1515 -16 -2106 -5
-591 -9 -1546 -9 -2122 l-1 -1048 118 0 118 0 12 48 c6 26 14 97 17 157 3 61
10 148 16 195 5 47 14 180 19 295 5 116 14 298 19 405 12 223 36 677 52 985
11 217 28 613 53 1200 8 187 18 372 21 410 3 39 10 189 16 335 5 146 16 375
25 510 32 520 32 520 -28 642 -29 59 -107 137 -166 166 -40 20 -37 33 14 50
41 14 54 13 224 -12 108 -16 185 -12 267 14 63 21 202 93 236 124 18 15 43 36
57 45 113 74 96 81 -120 52 -181 -24 -319 -6 -343 46 -23 50 59 151 187 230
29 18 146 67 229 96 31 11 18 25 -35 35 -193 38 -347 90 -517 173 -169 83
-281 159 -472 321 -135 115 -278 277 -308 347 -3 9 -25 48 -48 88 -24 39 -43
74 -43 78 0 5 -24 63 -50 120 -21 45 -51 138 -106 330 -43 152 -56 199 -65
235 -76 316 -91 406 -79 470 15 81 12 347 -6 463 -8 56 -29 161 -46 232 -21
93 -30 155 -30 218 0 106 11 135 99 261 84 120 85 168 2 110 -46 -32 -95 -26
-109 12 -18 46 5 64 86 64 23 0 77 6 120 14 44 8 118 17 166 21 l87 7 35 -34
c51 -50 109 -74 221 -93 249 -42 455 34 593 220 20 27 42 58 47 69 19 38 217
71 279 47 16 -6 9 -16 -55 -71 -205 -175 -385 -358 -495 -505 -20 -27 -40 -52
-44 -55 -12 -9 -42 -72 -36 -77 3 -3 76 65 162 152 87 86 201 193 253 237 53
44 98 85 99 89 2 5 8 9 14 9 6 0 27 13 47 29 49 38 140 101 146 101 3 0 33 19
67 43 35 23 97 60 138 81 41 21 93 51 115 65 49 33 125 64 125 52 0 -5 -20
-32 -44 -61 -56 -66 -129 -201 -168 -315 -29 -83 -31 -101 -32 -225 -1 -134
10 -178 27 -108 29 121 117 310 205 443 82 124 235 262 361 327 51 26 210 75
265 82 26 3 68 13 93 21 82 28 312 40 499 27 260 -19 294 -19 294 2 0 8 -8 17
-17 20 -10 3 -56 16 -103 30 -144 41 -149 47 -62 64 31 7 84 19 117 26 150 36
225 50 232 42 4 -4 11 -51 15 -104 4 -53 9 -108 10 -121 3 -20 -9 -30 -77 -67
-44 -24 -98 -52 -120 -62 -111 -52 -424 -246 -550 -341 -130 -98 -342 -297
-439 -411 -75 -88 -179 -240 -202 -296 -8 -18 -18 -35 -24 -39 -5 -3 -10 -15
-10 -25 0 -11 -7 -35 -16 -54 -11 -21 -14 -41 -9 -53 7 -15 10 -12 18 17 6 19
17 39 24 43 7 4 13 14 13 21 0 11 109 173 159 236 27 34 211 220 218 220 3 0
31 22 62 49 51 44 315 228 351 244 8 4 29 16 45 27 44 29 510 260 524 260 7 0
25 7 42 15 l30 16 25 -58 c30 -68 50 -114 55 -128 10 -26 74 -114 77 -105 2 5
-6 35 -17 67 -11 32 -23 75 -27 96 l-6 37 63 0 c35 0 71 4 79 10 17 11 19 10
-50 40 -116 51 -140 101 -140 289 0 119 13 228 47 385 19 87 18 85 103 152 33
26 60 53 60 60 0 18 -5 18 -49 -4 -71 -36 -107 -50 -206 -81 -232 -70 -375
-92 -660 -98 -158 -4 -201 -2 -255 13 -103 27 -184 71 -246 132 -79 78 -193
259 -179 282 9 15 41 12 55 -5 14 -16 80 -21 80 -5 0 5 -16 12 -36 16 -54 10
-144 103 -144 148 0 51 30 80 112 108 275 95 573 181 597 173 9 -3 31 -31 49
-62 18 -32 37 -65 42 -73 5 -8 11 -24 15 -34 4 -15 8 -17 17 -8 12 12 4 39
-43 159 -10 23 -10 36 -3 43 11 11 123 43 213 61 25 5 59 13 75 18 36 11 130
33 236 55 214 45 313 59 415 60 l111 1 42 -34 c24 -18 52 -51 62 -72 23 -44
39 -147 32 -203 -3 -27 -1 -37 7 -32 6 4 11 16 11 27 0 11 7 30 15 43 24 37
29 107 11 169 -9 30 -16 60 -16 66 0 22 23 10 62 -31 78 -85 164 -235 248
-433 23 -55 49 -114 56 -132 8 -17 14 -36 14 -42 0 -6 6 -25 14 -43 26 -63 45
-123 97 -313 40 -145 39 -141 89 -385 64 -311 74 -579 29 -725 -11 -38 -27
-92 -35 -120 -29 -102 -84 -241 -156 -395 -27 -58 -56 -118 -63 -135 -8 -16
-45 -94 -82 -172 l-68 -142 -65 -32 c-35 -18 -80 -36 -100 -40 -165 -33 -191
-48 -148 -92 38 -40 60 -89 65 -149 7 -68 -10 -121 -62 -194 -19 -27 -35 -53
-35 -57 0 -9 -130 -177 -230 -297 -66 -80 -264 -285 -371 -385 -143 -133 -272
-236 -404 -322 -38 -25 -79 -54 -90 -64 -29 -25 -173 -96 -247 -121 -167 -55
-383 -74 -505 -44 -183 45 -317 173 -372 356 -35 115 -40 144 -46 235 -9 129
-14 160 -27 147 -6 -6 -13 -73 -16 -156 -5 -160 6 -234 55 -351 52 -125 107
-192 362 -445 135 -135 264 -272 286 -304 68 -100 130 -161 202 -196 114 -57
286 -53 356 8 39 34 42 18 81 -451 8 -99 20 -229 26 -290 5 -62 19 -231 30
-377 11 -146 24 -312 30 -370 14 -160 41 -499 50 -650 9 -145 20 -292 45 -595
22 -271 34 -439 45 -605 6 -80 12 -163 16 -185 3 -22 12 -134 20 -250 8 -115
21 -295 29 -400 38 -492 45 -578 55 -695 6 -69 15 -179 20 -245 6 -66 15 -190
20 -275 6 -85 14 -182 20 -215 5 -33 12 -105 15 -160 3 -55 11 -139 17 -188
l11 -87 153 0 c179 0 167 -10 135 119 -48 188 -109 546 -141 821 -6 52 -15
118 -20 145 -6 28 -12 86 -15 130 -3 44 -12 141 -20 215 -37 338 -98 1154
-110 1460 -3 74 -12 279 -20 455 -38 822 -73 2512 -63 3043 l3 188 51 64 c115
146 399 578 440 670 4 8 13 22 19 30 7 8 30 47 50 85 21 39 44 77 51 86 8 8
14 19 14 22 0 4 25 51 56 105 31 53 79 140 107 192 28 52 82 154 120 225 65
123 217 429 277 560 15 33 46 99 69 148 22 48 41 91 41 95 0 4 6 18 13 32 7
14 24 54 37 90 13 36 26 70 30 75 7 10 9 16 67 175 106 294 132 467 103 685
-24 182 -32 236 -46 310 -31 161 -55 271 -69 325 -18 66 -19 106 -3 116 7 4
30 11 53 15 22 4 88 20 148 35 96 24 111 26 146 14 47 -15 99 -7 134 20 17 14
41 20 75 20 62 0 90 10 134 49 20 17 59 37 89 45 30 8 88 24 129 36 91 26 167
47 240 64 30 8 69 18 85 24 17 5 77 24 135 42 422 132 652 225 810 328 71 47
95 68 129 117 42 62 55 117 41 179 -25 108 -77 153 -221 192 -79 22 -366 24
-534 5 -140 -16 -372 -48 -450 -63 -33 -6 -96 -16 -140 -24 -75 -12 -128 -22
-330 -62 -84 -16 -165 -19 -228 -7 -28 5 -50 2 -87 -14 -27 -12 -70 -21 -97
-21 -46 0 -82 -14 -137 -54 -15 -10 -81 -31 -149 -46 -67 -15 -140 -32 -162
-38 -22 -6 -69 -12 -105 -14 l-64 -3 -41 61 c-61 92 -111 148 -168 191 -72 55
-125 73 -207 73 -81 0 -75 -10 -90 144 -16 156 -52 302 -97 390 -55 108 -148
162 -328 191 -92 15 -142 17 -306 11 -243 -9 -291 -20 -381 -90 -40 -30 -64
-29 -75 1 -9 26 -109 142 -151 176 -89 71 -170 93 -287 77z m154 -182 c58 -36
98 -77 133 -137 83 -139 86 -157 92 -566 4 -250 -1 -295 -28 -295 -9 0 -35 -6
-58 -14 -24 -7 -77 -24 -118 -36 -41 -12 -91 -28 -110 -35 -19 -7 -71 -23
-115 -36 -44 -12 -87 -26 -95 -30 -8 -4 -32 -16 -53 -25 -49 -21 -132 -113
-141 -155 -10 -52 -7 -125 8 -171 46 -146 61 -185 87 -238 16 -32 29 -62 29
-65 0 -3 22 -35 49 -70 44 -59 65 -81 145 -149 42 -35 178 -104 223 -112 21
-4 51 -13 67 -21 l29 -15 -24 -19 c-37 -29 -78 -49 -148 -71 -87 -27 -254 -29
-330 -3 -129 43 -155 75 -211 265 -15 52 -37 122 -49 155 -12 33 -26 76 -30
95 -5 19 -15 62 -24 95 -8 33 -22 96 -32 140 -9 44 -23 107 -30 140 -31 139
-64 352 -85 552 -23 212 -23 267 -5 394 22 151 55 232 112 267 34 22 205 82
373 132 41 12 93 28 115 36 22 7 73 13 114 14 59 0 81 -4 110 -22z m1081 -164
c91 -21 140 -57 162 -119 42 -115 78 -311 78 -417 0 -31 -4 -38 -22 -42 -13
-3 -66 -12 -118 -21 -128 -22 -466 -93 -635 -134 -27 -7 -68 -18 -90 -25 -77
-24 -73 -40 -77 287 -4 323 -3 325 61 406 19 24 50 51 70 60 70 31 443 35 571
5z m-2237 -350 c32 -16 77 -60 121 -119 32 -42 53 -115 60 -213 4 -46 11 -105
16 -130 6 -26 14 -83 19 -127 11 -93 54 -351 75 -445 8 -36 20 -87 26 -115 26
-121 61 -246 113 -405 51 -155 54 -181 24 -233 -44 -75 -162 -172 -287 -236
-92 -47 -157 -51 -289 -17 -56 15 -110 31 -119 35 -9 5 -30 14 -45 20 -15 6
-30 19 -33 28 -3 10 -12 31 -20 46 -7 16 -14 35 -14 43 0 8 -13 43 -29 77 -29
62 -105 285 -176 512 -20 66 -41 131 -45 145 -16 45 -51 189 -100 405 -31 137
-32 142 -20 235 16 117 42 225 66 267 16 27 38 41 126 78 59 25 112 45 117 45
6 0 25 6 43 14 35 15 200 67 283 90 28 8 51 14 53 15 2 1 17 -6 35 -15z m5640
-261 c34 -9 74 -25 89 -35 52 -36 29 -44 -160 -57 -97 -7 -204 -19 -237 -26
-33 -8 -73 -15 -89 -15 -15 0 -58 -7 -95 -15 -36 -8 -93 -19 -126 -25 -66 -13
-173 -34 -280 -55 -38 -8 -104 -21 -145 -29 -73 -14 -107 -21 -310 -67 -126
-28 -221 -47 -297 -61 -55 -10 -65 -9 -81 5 -15 14 -23 15 -49 5 -53 -20 -65
-7 -58 59 4 32 9 66 12 76 5 20 41 37 80 37 24 0 25 -2 20 -40 -3 -22 -1 -40
3 -40 5 0 10 12 12 27 3 30 15 35 133 57 39 7 131 25 205 40 74 15 167 33 205
40 39 8 97 19 130 26 33 6 98 17 145 25 47 7 123 20 170 29 47 8 132 20 190
26 58 7 130 15 160 20 105 15 306 11 373 -7z m-6616 -246 c60 -31 82 -74 113
-219 50 -235 61 -281 70 -299 6 -10 10 -28 10 -40 0 -12 9 -50 19 -83 19 -58
46 -145 93 -301 24 -81 117 -354 147 -435 12 -30 28 -84 37 -119 15 -59 15
-68 -1 -120 -65 -214 -287 -326 -518 -262 -37 10 -77 27 -88 37 -19 18 -60 82
-109 172 -14 26 -37 65 -51 87 -14 22 -35 63 -48 90 -12 28 -28 64 -36 80 -41
90 -58 134 -85 222 -17 54 -36 118 -44 143 -13 40 -31 117 -66 270 -18 78 -31
201 -37 346 -5 127 -4 144 15 180 51 100 259 242 392 268 48 9 155 -1 187 -17z
m4711 -72 c-2 -41 -8 -79 -15 -86 -6 -6 -26 -12 -44 -12 l-34 -2 -3 67 c-2 57
0 70 18 88 11 11 33 20 51 20 l31 0 -4 -75z m1942 45 c0 -6 -10 -15 -22 -20
-13 -6 -38 -19 -57 -31 -18 -11 -52 -27 -75 -35 -84 -31 -242 -85 -271 -94
-16 -5 -61 -18 -100 -30 -38 -11 -92 -27 -120 -34 -79 -22 -195 -53 -260 -72
-33 -9 -79 -20 -103 -25 -24 -5 -48 -11 -54 -15 -5 -3 -35 -12 -66 -19 -73
-17 -161 -39 -237 -60 -33 -9 -85 -23 -116 -30 -31 -7 -73 -18 -93 -25 -20 -6
-53 -9 -74 -5 -24 4 -50 0 -75 -10 -36 -15 -38 -15 -62 9 -43 43 -28 86 31 86
21 0 36 -7 47 -22 l16 -23 16 23 c11 15 26 22 48 22 18 0 48 5 67 11 19 6 62
17 95 25 33 8 85 21 115 29 30 7 78 19 105 25 70 16 152 36 205 51 25 6 70 18
100 25 68 15 303 77 385 99 33 10 80 21 105 26 25 5 56 13 70 18 14 5 59 19
100 31 124 37 194 60 210 70 20 13 70 13 70 0z m-2092 -118 c2 -61 -1 -83 -10
-86 -42 -12 -144 -37 -211 -51 -65 -14 -80 -15 -94 -3 -16 13 -63 109 -63 128
0 11 97 40 215 65 44 9 91 21 105 25 50 17 55 11 58 -78z m208 -336 c0 0 8
-15 16 -33 17 -35 12 -45 -29 -57 -36 -11 -61 2 -69 36 -5 26 -2 35 16 50 15
12 30 16 44 12 12 -4 21 -7 22 -8z m-115 -83 c19 -50 9 -56 -136 -87 -33 -8
-68 -17 -78 -21 -30 -13 -64 3 -72 32 -8 35 6 46 82 63 32 7 81 18 108 25 76
19 84 18 96 -12z m-1536 -403 c-3 -5 -13 -10 -21 -10 -8 0 -14 5 -14 10 0 6 9
10 21 10 11 0 17 -4 14 -10z m-3680 -353 c8 -18 16 -48 17 -67 3 -33 1 -35
-47 -51 -27 -9 -79 -25 -115 -34 -130 -35 -250 -68 -355 -100 -90 -28 -156
-47 -260 -75 -122 -34 -229 -65 -290 -85 -48 -16 -223 -69 -320 -97 -38 -11
-86 -26 -105 -33 -137 -49 -174 -55 -184 -30 -7 18 1 42 17 48 107 45 200 82
232 92 39 13 62 22 175 65 30 12 73 27 95 35 22 8 85 30 140 50 55 20 114 40
130 44 17 4 39 12 50 18 11 6 36 16 55 22 250 83 614 202 710 231 31 9 36 6
55 -33z m176 -389 c17 -31 -17 -55 -89 -63 -31 -3 -84 -11 -117 -16 -33 -6
-109 -18 -170 -26 -60 -8 -153 -20 -205 -28 -52 -7 -138 -18 -190 -24 -52 -6
-129 -16 -170 -21 -119 -17 -228 -22 -234 -12 -3 6 20 13 52 16 31 4 71 11 87
17 17 5 62 13 100 18 39 6 95 14 125 20 30 6 111 20 180 32 69 11 152 26 185
34 33 7 107 21 165 30 58 10 128 23 155 30 78 20 112 19 126 -7z"/>
<path d="M5380 10980 c8 -5 24 -10 35 -10 11 0 27 5 35 10 11 7 1 10 -35 10
-36 0 -46 -3 -35 -10z"/>
<path d="M4726 4629 c-4 -184 -11 -552 -17 -819 -5 -267 -16 -827 -24 -1245
-8 -418 -17 -814 -20 -880 -3 -66 -10 -412 -16 -770 -5 -357 -12 -703 -16
-767 l-6 -118 127 0 126 0 -5 68 c-2 37 -9 265 -15 507 -5 242 -15 638 -20
880 -6 242 -15 645 -20 895 -5 250 -14 631 -20 845 -6 215 -15 629 -20 920 -6
292 -15 559 -20 595 -5 36 -10 95 -11 132 -1 37 -5 72 -9 79 -4 6 -11 -139
-14 -322z"/>
<path d="M5050 4309 c0 -41 -3 -1020 -6 -2176 l-6 -2103 77 0 78 0 -6 117 c-4
65 -11 339 -17 608 -5 270 -12 510 -15 535 -3 25 -9 243 -15 485 -5 242 -14
582 -20 755 -6 173 -15 488 -20 700 -6 212 -12 394 -14 406 -2 11 -10 182 -16
380 -6 197 -14 361 -16 363 -2 2 -4 -29 -4 -70z"/>
<path d="M0 10 c0 -7 1807 -10 5400 -10 3593 0 5400 3 5400 10 0 7 -1807 10
-5400 10 -3593 0 -5400 -3 -5400 -10z"/>
</g>
</svg>
